# xmcd CD database file
#
# Track frame offsets:
#	150
#	25188
#	49388
#	78255
#	102760
#	131678
#	162298
#	188938
#	211978
#	242010
#
# Disc length: 3549 seconds
#
# Revision: 0
# Processed by: cddbd v1.4PL0 Copyright (c) Steve Scherf et al.
# Submitted via: CDex 1.50
#
DISCID=810ddb0a
DTITLE=Jonny L. - Sawtooth
DYEAR=1997
DGENRE=Drum'n Bass
TTITLE0=Treading
TTITLE1=Piper
TTITLE2=S4
TTITLE3=Wish U had something
TTITLE4=Detroit
TTITLE5=Two of Us
TTITLE6=Tychonic Cycle
TTITLE7=Moving thru Air
TTITLE8=I let U
TTITLE9=Obedience
EXTD=YEAR: 1997
EXTT0=
EXTT1=
EXTT2=
EXTT3=
EXTT4=
EXTT5=
EXTT6=
EXTT7=
EXTT8=
EXTT9=
PLAYORDER=
